#N canvas 393 122 878 690 24;
#X obj 65 395 dac~;
#X obj 188 50 adc~ 1;
#X obj 66 251 osc~;
#X floatatom 66 189 5 0 0 0 - - -;
#X obj 456 147 output~;
#X floatatom 455 30 5 0 0 0 - - -;
#X obj 455 81 phasor~;
#X obj 66 334 *~;
#X floatatom 226 201 5 0 100 0 - - -;
#X obj 226 239 / 100;
#X obj 226 274 pack 0 50;
#X obj 226 309 line~;
#X obj 66 294 *~;
#X obj 145 268 osc~;
#X obj 145 225 / 100;
#X floatatom 145 188 5 0 0 0 - - -;
#X obj 66 146 mtof;
#X floatatom 66 104 5 0 0 0 - - -;
#X obj 640 98 moses 50;
#X floatatom 640 144 5 0 0 0 - - -;
#X floatatom 725 143 5 0 0 0 - - -;
#X floatatom 640 47 5 0 0 0 - - -;
#X obj 227 381 sigmund~;
#X msg 427 262 devices;
#X msg 532 263 open 2;
#X msg 628 263 close 2;
#X obj 436 361 split 0 100;
#X obj 571 361 split 101 200;
#X floatatom 436 399 5 0 0 0 - - -;
#X floatatom 571 399 5 0 0 0 - - -;
#X obj 491 313 comport 2 9600;
#X obj 436 439 autoscale 0 127;
#X floatatom 436 481 5 0 0 0 - - -;
#X obj 614 439 autoscale 0 127;
#X floatatom 614 481 5 0 0 0 - - -;
#X connect 2 0 12 0;
#X connect 3 0 2 0;
#X connect 5 0 6 0;
#X connect 6 0 4 0;
#X connect 6 0 4 1;
#X connect 7 0 0 0;
#X connect 7 0 0 1;
#X connect 8 0 9 0;
#X connect 9 0 10 0;
#X connect 10 0 11 0;
#X connect 11 0 7 1;
#X connect 12 0 7 0;
#X connect 13 0 12 1;
#X connect 14 0 13 0;
#X connect 15 0 14 0;
#X connect 16 0 3 0;
#X connect 17 0 16 0;
#X connect 18 0 19 0;
#X connect 18 1 20 0;
#X connect 21 0 18 0;
#X connect 23 0 30 0;
#X connect 24 0 30 0;
#X connect 25 0 30 0;
#X connect 26 0 28 0;
#X connect 27 0 29 0;
#X connect 28 0 31 0;
#X connect 29 0 33 0;
#X connect 30 0 26 0;
#X connect 30 0 27 0;
#X connect 31 0 32 0;
#X connect 33 0 34 0;
